<?xml version="1.0" encoding="UTF-8"?><svg id="Livello_1" xmlns="http://www.w3.org/2000/svg" viewBox="0 0 100 64.3"><path d="m5.76,56.71c0-.68-.18-1.23-.53-1.63l-.04-.04c-.06-.07-.15-.16-.24-.2-.23-.13-.53-.15-.74-.15h-1.76c-.09,0-.19.05-.26.12l-.05.05v2.94c0,.05,0,.23.02.4,0,.17.02.33.02.38v4.73s0,.06,0,.11c0,.08.02.19.02.24v.05c0,.13-.01.35.14.47l.05.04h.29c.24,0,.42,0,.63-.04.13,0,.21-.09.26-.16l.11-.07v-3.68c.06,0,.12,0,.19-.01.14,0,.29-.02.34-.02.17,0,.43-.04.59-.12.17-.07.31-.22.44-.36l.09-.1s.07-.08.07-.15c.01-.04.06-.13.07-.16.02-.07.04-.15.07-.23.05-.18.11-.37.14-.57,0-.03.01-.1.02-.16,0-.07.02-.14.02-.15,0-.02,0-.14.01-.25,0-.09.01-.18,0-.18.03-.26.02-.54.02-.8,0-.1,0-.2,0-.3Zm-2.28,2.19l.17-.04c0-.21,0-.81.02-1.41,0-.54.02-1.07.02-1.32,0,0,0,0,.01,0h.05c.08,0,.46.02.49.31.02.45.02.72.02,1.14,0,.27,0,.67-.02.93-.05.27-.21.38-.53.38-.04,0-.07-.01-.08-.02,0,0,0,.01,0,.02h-.17Z" style="fill:#40a9ff;"/><path d="m12.55,54.78h0l-1.01-.04c-.17,0-.27.22-.27.32,0,1.19,0,2.36-.02,3.52,0,1.16-.02,2.33-.02,3.52v1.54l.04.47.16.16h1.14l.18-.16v-.08s.03-1.54.03-2.21c0-.58.02-1.16.04-1.74.02-.58.04-1.16.04-1.73v-3.32l-.02-.04c-.05-.08-.13-.22-.28-.22Z" style="fill:#40a9ff;"/><path d="m21.42,54.89l-.15-.16h-.06s-.42-.05-.6-.05h0c-.55-.04-1.1-.04-1.7-.04h-.31l-.19.12v.94c0,.3.16.46.45.46h1.11s-1.55,6.66-1.55,6.66v.73c0,.19,0,.84.55.68.02,0,.04-.01.04-.01h1.39l.12-.03.09.05.33.02s.05,0,.09.01c.06,0,.11.02.14.02.22,0,.32-.22.32-.45,0-.02.01-.09.03-.15v-.79s-.16-.07-.16-.07h-1.18s-.08-.02-.08-.02c-.01,0-.03,0-.04,0l1.4-6.63-.02-.06h.09l-.11-1.24Z" style="fill:#40a9ff;"/><path d="m30.01,54.89l-.15-.16h-.06s-.42-.05-.6-.05h0c-.55-.04-1.1-.04-1.7-.04h-.31l-.19.12v.94c0,.3.16.46.45.46h1.11s-1.55,6.66-1.55,6.66v.73c0,.17,0,.71.42.71.04,0,.09-.01.14-.03.02,0,.04-.01.04-.01h1.39l.12-.03.09.05.33.02s.05,0,.09.01c.06,0,.11.02.14.02.22,0,.32-.22.32-.45,0-.02.01-.09.03-.15v-.79s-.16-.07-.16-.07h-1.18s-.08-.02-.08-.02c-.01,0-.03,0-.04,0l1.4-6.63-.02-.06h.09l-.11-1.24Z" style="fill:#40a9ff;"/><path d="m39.54,63.66c-.06-.44-.1-.84-.14-1.27-.02-.08-.09-.67-.13-1.02-.03-.28-.06-.53-.07-.57-.11-.84-.2-1.64-.3-2.43-.14-1.16-.26-2.25-.43-3.45v-.05s-.15-.18-.15-.18h-1.48c-.26,0-.34.38-.33.56-.13,1.2-.28,2.36-.43,3.49-.16,1.27-.34,2.58-.48,3.93-.01.12-.03.24-.05.36-.04.29-.09.59-.09.89l.02.08c.09.17.26.16.35.15.22,0,.44,0,.63-.04.39,0,.41-.48.44-.95.01-.22.02-.48.08-.63.02,0,.05,0,.08,0,.21.01.53.03.78.03.07.13.09.58.1.76,0,.08,0,.14.01.18,0,.33.13.58.13.59l.05.09h.11c1.13,0,1.32-.06,1.34-.23.01-.04,0-.09-.01-.15-.01-.03-.02-.07-.02-.14Zm-1.44-6.66s.03-.05.08-.06c.04,0,.07.03.08.05,0,.05-.02.09-.06.11-.04-.01-.08-.05-.09-.1Zm-.91,3.58l.03-.31c.07-.6.13-1.21.2-1.81.04.35.06.76.08,1.03.01.19.02.35.03.46,0,.18.03.38.07.59.03.21.07.42.07.62l-.54-.06c0-.17.03-.33.06-.53Z" style="fill:#40a9ff;"/><path d="m55.12,62.86l-.19-.07h-.06c-.32,0-.77-.02-1.08-.03-.12,0-.22,0-.29,0,0-.02-.02-.06-.02-.14v-2.73s0,0,.02,0c.14,0,.28,0,.43.01.15,0,.31.01.46.01h.05l.04-.03c.09-.06.14-.15.14-.25v-.89c0-.1-.04-.26-.34-.26h-.79c-.04-.17-.06-.64-.06-1.39v-.1s0-.09,0-.14c0-.18-.02-.45.04-.68h1.34l.04-.03s.07-.07.09-.11l.06-.03v-1.13l-.17-.15h-.05c-.54-.08-1.98-.09-2.57-.09h-.05l-.19.12v8.76c0,.47.15.71.44.71,0,0,.67-.04.96-.19h0c.1.1.23.19.64.15h.05s.02-.02.02-.02c0,0,.01,0,.02.01.03.02.06.03.08.04h.07c.09.01.17.02.24.03.08,0,.16.01.23.01.08,0,.16-.03.22-.09.16-.17.17-.55.16-.9v-.4Zm-1.05,1.29s.01,0,.02,0c-.03,0-.06-.01-.09-.04l.11-.13.02.02-.05.14Z" style="fill:#40a9ff;"/><path d="m70.87,54.74h-.83c-.15,0-.2.16-.23.24-.03.12-.03.16-.03.16,0,.02-.01.06-.02.09,0,.04-.02.07-.02.09-.03.1-.04.17-.04.21,0,.02,0,.09-.01.15,0,.08-.01.16-.01.17,0,.03-.02.11-.03.19-.02.11-.03.22-.03.23,0,.02,0,.1-.02.17-.01.1-.02.2-.02.21,0,.02,0,.07-.02.11-.01.07-.02.14-.02.15-.07.64-.16,1.28-.24,1.92,0-.04,0-.07,0-.08,0-.06-.03-.23-.08-.61-.03-.21-.08-.51-.08-.55v-.04c-.02-.06-.06-.44-.1-.78-.05-.45-.1-.96-.14-1.16,0-.02,0-.11-.01-.19,0-.07-.01-.14-.01-.16,0-.36-.13-.55-.37-.55h-1.09l-.1.16v.18c0,.29.02.56.06.87v.06c.07.71.13,1.44.23,2.13l.4,3.56h0c.1.74.2,1.51.24,2.28v.06s.15.18.15.18h.08s.58.03.86.03h.39c.25,0,.31-.35.31-.47,0-.02,0-.06.01-.1,0-.04,0-.09.01-.12.04-.15.04-.18.04-.2,0-.04.02-.17.03-.29.02-.13.03-.25.03-.27.07-.65.17-1.29.27-1.91.04-.28.09-.56.13-.84.12-.93.23-1.86.34-2.79.07-.61.14-1.22.22-1.85,0-.06.04-.29.04-.31,0-.31-.19-.34-.27-.34Z" style="fill:#40a9ff;"/><path d="m78.19,54.99c-.05-.08-.12-.22-.28-.22h0l-1.01-.04c-.17,0-.27.22-.27.32,0,1.19,0,2.36-.02,3.52,0,1.16-.02,2.33-.02,3.52v1.54l.04.47.16.16h1.14l.18-.16v-.08s.03-1.54.03-2.21c0-.58.02-1.16.04-1.74.02-.58.04-1.16.04-1.73v-3.32s-.02-.04-.02-.04Z" style="fill:#40a9ff;"/><path d="m88.33,54.94c-.04-.07-.12-.22-.32-.22h-1.04l-.15.19v3.33c0,.07,0,.42-.02.78,0,.36-.02.72-.02.79v.09c-.3-1.08-.56-2.07-.77-2.95l-.32-1.36s-.02-.08-.04-.16c-.18-.69-.2-.76-.36-.76-.19,0-.34,0-.5-.01-.16,0-.32-.01-.52-.01-.21,0-.31.23-.31.46-.01.91-.02,1.82-.03,2.74-.02,1.78-.03,3.62-.08,5.41v.55l.05.16.13.15h.93c.2,0,.41-.22.41-.43,0-1.01,0-2.05.02-3.09.02.09.05.18.06.26.1.43.15.6.17.63l.02.08c.19.64.34,1.28.5,1.96l.05.2c0,.08.05.23.1.28.04.05.1.12.13.14l.05.04h1.58l.16-.17v-.07s.06-4.4.1-6.29c0-.39,0-.77.02-1.15,0-.38.02-.77.02-1.16v-.39s-.03-.04-.03-.04Z" style="fill:#40a9ff;"/><path d="m96.91,54.78c-.15-.12-.37-.15-.55-.18-.06,0-.11-.01-.19-.03-.03,0-.13,0-.21-.01-.07,0-.14-.01-.19,0l-.09.02c-.1,0-.35.06-.41.08-.44.18-.79.62-.97,1.21l-.02.12s-.04.08-.07.14c-.08.15-.1.2-.1.21-.02.08-.08.33-.08.45,0,.02,0,.06,0,.11,0,.08-.02.17-.02.21,0,.1-.04.4-.04.42v4.17s0,.06.01.12c.01.08.02.19.03.25v.05c.07.52.14,1.11.5,1.56.09.09.24.26.28.32l.09.09c.08.05.16.07.23.08.04,0,.08.01.1.03l.04.03h.01s.02.01.02.02c.06.04.12.09.19.09h.67c.12,0,.4-.08.52-.17.58-.39,1-1.14,1.07-1.89.04-.18.08-.76.08-.81,0-.08,0-.37,0-.72,0-.53.02-1.2.02-1.49v-2.41c-.11-.72-.32-1.6-.93-2.04Zm-1.33,1.58c.02-.15.19-.23.33-.23.08,0,.12,0,.14.01l.14.15v.03s.03.06.04.11c.01.05.03.1.03.12,0,.35,0,1.31-.02,2.27,0,.97-.02,1.93-.02,2.28,0,.06,0,.26-.01.47,0,.25-.01.51-.01.6,0,.5-.12.55-.25.55h-.09c-.06-.03-.18-.1-.22-.1-.02-.01-.05-.06-.06-.06,0-.02,0-.08-.01-.15,0-.07-.01-.16-.01-.19v-4.08c0-.14,0-.51.01-.89,0-.38.01-.76.01-.87Z" style="fill:#40a9ff;"/><path d="m27.9,8.92c0,5.29-.08,10.59-.15,15.88.15,1.07-.6,5.02.78,5.13,2.07.06,4.09.41,6.17.15,2.01-.17,4.05-.66,6.05-.39.52.07.82-.05,1.15-.04,1.62.05.76-4.21.94-5.07,0-.43-.07-.53-.49-.51-2.22.18-4.44.04-6.66-.04,0-.93-.03-1.76,0-2.59.03-.64.18-.68.81-.65,1.33.04,2.67.06,4,0,.88-.04,1.11-.38,1.13-1.28.19-5.04.49-2.57-5.29-3.19-.63-.08-.65-.04-.66-.74-.02-1.6-.04-3.13-.04-4.75,1.1-.13,2.14-.13,3.22-.27.46-.06.47.02,1.35-.01.5-.02.99-.19,1.04-.65.09-.99.18-1.98.27-2.96.14-1.02-.33-1.09-1.16-.93-4.07.55-8.13-.33-12.2-.1-1.18.06-.13,2.23-.28,3Z" style="fill:#40a9ff;"/><path d="m82.66,27.49c-.02.61-.03,1.22-.08,1.83-.03.43,0,.51.4.51,4.17.17,9.9-.06,14.1.13.32-.02.41-.19.39-.58-.07-1.05-.1-2.11-.03-3.16.02-.31-.06-.54-.34-.55-.58-.02-5.13-.03-5.71-.05-.87-.03-1.74-.06-2.61-.1-.32-.02-.37-.1-.35-.48.04-1.2.07-1.44.11-2.64.01-.36.09-.46.39-.45,1.94.15,5.52.18,7.51.13.17-.02.27-.15.28-.39.06-1.5.26-2.98.37-4.47.04-.62-.09-.72-.64-.67-1.77.07-5.84.23-7.55-.11-.38-.04-.45-.14-.42-.61.07-2.57-.42-.28-.34-2.85,1.09-.03,2.09.14,3.16-.13.29-.07,4.58.03,4.88.06.4.07,1.01.29,1.1-.35.27-1.58.43-3.23.24-4.82-3.92-.4-8.63-.38-12.46-.39-.9,0-2.51-.73-2.64.78-.34,9.3.64,11.93.24,19.34Z" style="fill:#40a9ff;"/><path d="m64.05,11.31c.08.72.72.67,1.24.49.89-.04,1.78-.07,2.67-.1.37-.01.44.08.44.46,0,5.92.54,11.92-.05,17.81-.15.42-.11.54.34.63.86,0,1.87.5,2.62-.08.09-.08.24-.09.36-.1.8-.06,1.6-.13,2.4-.13.44.02.4-.46.39-.77-.15-5.94-.23-11.83-.23-17.78,1.7-.16,3.37.1,5.06.15.41-.04.75-.92.78-1.31-.36-5.25,1.46-5.03-2.56-5-4.56-.15-9.13-.48-13.68-.21-.5,0-.46.47-.38.85.25,1.69.42,3.4.62,5.09Z" style="fill:#40a9ff;"/><path d="m1.19,8.43c.43,7.19.58,14.48.09,21.64-.05.37.07.62.43.6,2.34,0,4.68-.15,7-.48-.01-2.73-.24-5.48-.25-8.2-.03-.34-.06-.67-.09-1.01.25-.27.52-.56.79-.85,2.52,2.5,7.15,7.25,9.37,9.03.13.12.27.25.4.37,2.19-.09,4.37-.4,6.51-.89-.02-.08-.04-.17-.05-.25-.75-.89-1.45-1.82-2.19-2.7-3.13-3.32-6.93-6-10.06-9.36-.11-.11-.21-.17-.3-.19,1.14-1.27,2.14-2.44,2.76-3.27,2-2.38,4.37-4.66,6.14-7.16-.01-.01-.03-.04-.03-.04-.08-.1-.17-.19-.27-.27-2.18.16-4.43-.08-6.57.35-.85.78-1.75,1.5-2.61,2.28-1.58,1.6-2.99,3.35-4.41,5.11-.08-2.24-.07-4.48.1-6.71.08-.84-.06-.63-.69-.67-.28-.39-.28-.37-.73-.35-1.54.11-3.08.03-4.61.06-1.42,0-.58,2.04-.69,2.95Z" style="fill:#40a9ff;"/><path d="m46.34,26.81c1.06.9,2.2,1.69,3.47,2.25.31.14.61.3.93.37.78.16,1.57.26,2.35.42,1.18.23,2.35.1,3.47-.2,1.19-.32,2.38-.73,3.39-1.54.1-.08.23-.13.34-.19.78-.43,1.34-1.06,1.72-1.89.65-1.43.69-2.95.6-4.47-.04-.8-.23-1.59-.63-2.31-.55-.99-1.25-1.82-2.18-2.42-1.03-.68-2.08-1.33-3.1-2.02-.86-.58-1.79-1.01-2.72-1.42-.96-.42-1.88-.9-2.72-1.54-.11-.08-.24-.22-.26-.35-.06-.53.06-1.01.4-1.45.33-.42.68-.6,1.2-.45.23.07.48.05.72.07,1.4.12,2.75.44,4,1.1.72.39,1.41.85,2.1,1.29.18.11.35.25.56.14.22-.12.19-.34.19-.56.03-1.13.06-2.26.09-3.39.02-.51-.07-.96-.6-1.17-.08-.03-.16-.1-.23-.15-1.01-.82-2.24-1.18-3.41-1.64-.97-.38-1.99-.47-3-.5-.71-.02-1.44-.05-2.11.37-.46.29-.95.52-1.46.71-1.9.7-2.95,2.25-3.69,4.06-.31.75-.35,1.6-.35,2.44,0,.62.14,1.18.42,1.71.1.19.21.36.32.54.47.79,1.02,1.51,1.79,2.02.58.38,1.13.81,1.72,1.18.74.47,1.5.91,2.27,1.33,1,.55,2.04,1.03,2.91,1.78.35.3.65.68.95,1.04.09.11.1.3.15.45-.12.05-.17.1-.22.09-.68-.05-1.35,0-2.04-.09-1.05-.15-2.01-.55-2.96-.96-1.08-.47-2.21-.86-3.17-1.63-.51-.41-1.17-.56-1.62-1.09-.12-.15-.39-.16-.7-.28-.05.5-.09.86-.12,1.22-.07,1.03-.14,2.07-.18,3.11-.04.93-.15,1.86.38,2.73.29.48.57.96.99,1.31Z" style="fill:#40a9ff;"/><path d="m91.91,6.58c.14-.1.28-.19.42-.29.38-.25.79-.49,1.18-.73.07-.04.16-.04.25,0,.57-.34,1.15-.67,1.69-1.03.75-.51.9-.69,1.72-1.13.25-.13.26-.18.15-.42-.02-.04-.03-.08-.03-.12.03-.31.04-.63.1-.94.11-.56-.4-.66-.28-1.21.06-.29-.05-.4-.44-.46-.5-.08-.99-.16-1.49-.24-.38.27-.7.59-1.04.89-.08.07-.05.06-.01.03-.49.53-1.11.98-1.72,1.44-.45.34-.31.36-.75.71-.33.27-.53.6-.53,1,0,.61-.05,1.22-.21,1.81-.04.16-.04.34-.06.48.07.04.09.06.11.06.31.05.62.11.93.16Z" style="fill:#40a9ff;"/><path d="m99.85,43.1c-.4-.2-.43-.41-.43-.62,0-.23.75-.46.16-.68-.59-.22-.49-.43-.09-.65.35-.19.45-.38.43-.57-.01-.14-1.21-.23-3.92-.23-2.01,0-4.02,0-6.03.01-12.6.08-25.19.16-35.91.23-15.09.12-28.3.22-41.5.34-3.08.03-6.17.08-9.2.13-3.1.06-3.48.1-3.33.28.07.08.4.16.44.24.16.32.36.63.34.95-.02.47-.32.94-.25,1.41.03.23,2.43.32,6.4.29,1.71-.01,3.41-.02,5.12-.04,8.08-.06,16.17-.12,24.24-.19,4.01-.04,7.96-.15,11.96-.18,15.68-.12,31.3-.34,47.03-.39,4.45-.02,5.04-.08,4.54-.33Z" style="fill:#40a9ff;"/></svg>