<svg width="178" height="208" viewBox="0 0 178 208" fill="none" xmlns="http://www.w3.org/2000/svg">
<path fill-rule="evenodd" clip-rule="evenodd" d="M90.1705 160.552C90.1187 160.172 90.1532 159.544 90.6799 159.588C91.172 159.624 91.8195 160.835 93.2267 161.639C94.6426 162.443 96.1103 162.859 97.6471 163.336C100.332 164.176 101.532 163.99 104.105 163.257C104.433 163.16 104.968 162.841 105.244 163.124C106.134 164.061 102.974 170.028 95.7132 167.27C92.5706 166.068 90.6108 163.982 90.1791 160.552H90.1705ZM120.517 105.364C120.189 105.443 120.146 105.284 119.231 105.655C118.911 105.779 118.436 106.009 118.298 106.354C117.884 107.362 119.731 107.344 120.336 107.282C121.579 107.167 123.772 106.15 121.933 105.452C121.493 105.284 120.957 105.249 120.508 105.355L120.517 105.364ZM46.4852 117.925C46.1571 118.005 45.8981 117.943 45.2765 118.235C45.0262 118.35 44.534 118.668 44.3441 118.88C42.9282 120.427 45.501 121.453 47.0464 119.552C47.6766 118.774 47.6076 117.66 46.4852 117.934V117.925ZM117.435 137.037C117.236 137.082 116.373 137.108 116.295 137.762C116.218 138.337 118.609 139.902 119.775 139.919C121.13 139.937 121.087 138.62 120.31 137.833C119.714 137.241 118.298 136.825 117.444 137.029L117.435 137.037ZM9.15417 179.072C8.7484 179.195 8.80882 179.284 8.60161 179.628C8.46348 179.858 8.33399 180.097 8.17858 180.309C7.69511 180.999 6.73678 182.44 6.70225 183.27C6.64181 184.826 9.16279 184.826 10.0607 182.077C10.3197 181.281 10.3887 180.062 9.83619 179.363C9.77576 179.284 9.64628 179.16 9.55994 179.116C9.2405 178.93 9.17144 179.054 9.15417 179.054V179.072ZM118.885 78.4195C118.773 78.446 118.609 78.4195 118.402 78.4637C117.547 78.667 116.485 79.0471 115.872 79.6571C114.681 80.8505 117.064 81.151 117.806 81.2571C121.052 81.7256 121.778 79.7189 120.552 78.7907C120.068 78.4195 119.464 78.278 118.885 78.4195ZM130.005 95.074C129.53 95.3922 130.394 97.0453 130.61 97.452C130.964 98.1061 131.559 98.831 132.086 99.3614C132.613 99.8918 133.295 100.493 133.985 100.785C136.869 101.987 137.991 100.13 136.359 98.6895C135.859 98.2475 134.9 97.7083 134.305 97.3635C133.692 97.0099 130.48 94.7558 129.997 95.0828L130.005 95.074ZM18.3143 121.081C17.1487 121.364 17.0192 121.612 16.2077 122.407C15.1458 123.45 14.3429 125.934 14.2997 127.446C14.2911 127.8 14.0666 128.701 14.6019 128.79C15.0594 128.86 15.3271 128.321 15.5947 128.047L17.2869 126.297C17.8826 125.722 18.5128 125.183 19.0913 124.6C21.6295 122.054 19.8596 120.701 18.3229 121.081H18.3143ZM114.12 67.3165C113.386 67.4402 113.723 67.2722 112.643 67.5816C112.186 67.7142 111.754 67.8645 111.314 68.059C110.589 68.3773 109.699 68.943 109.104 69.4646C108.767 69.7651 107.576 71.1177 107.696 71.5508C107.817 72.0016 108.655 71.648 109.017 71.595C111.193 71.2768 115.035 71.1353 116.623 70.2336C118.419 69.2082 116.977 66.8214 114.12 67.3165ZM95.8426 109.563C95.6613 109.598 95.1693 109.598 94.9189 109.633C93.7534 109.784 90.0323 110.747 89.4539 111.101C88.7719 111.525 89.7129 111.976 90.0496 112.1C90.982 112.453 92.4583 112.674 93.4512 112.657L97.1981 112.869C97.742 112.948 98.4759 112.975 99.037 113.01C99.814 113.055 101.998 113.046 101.498 111.711C101.204 110.933 100.03 110.243 99.3047 109.943C98.3118 109.536 96.87 109.386 95.834 109.572L95.8426 109.563ZM71.1078 116.926C68.889 117.28 67.3782 118.049 65.4961 119.357C61.9563 121.824 63.5104 123.468 65.4961 123.15C67.853 122.77 69.8991 120.851 71.6863 119.313C71.9625 119.075 72.541 118.597 72.7568 118.35C74.0087 116.891 72.1611 116.767 71.1164 116.935L71.1078 116.926ZM46.8392 108.281C46.1399 108.528 44.6117 109.572 43.9124 110.022C41.1929 111.782 39.095 111.932 37.5755 113.134C35.5984 114.699 37.7568 117.519 41.685 115.795C43.8088 114.867 45.4319 113.284 46.5802 111.242C46.8219 110.809 48.4105 107.733 46.8305 108.281H46.8392ZM99.9176 89.6374C98.5622 89.8407 97.8888 90.0175 96.6887 90.7247C95.9204 91.1756 94.9016 92.0772 94.5649 92.917C93.5721 95.4364 99.5982 93.801 100.85 93.6154C102.076 93.4298 103.345 93.4121 104.519 92.9789C105.227 92.7137 106.79 91.8916 106.945 91.0783C107.083 90.3358 106.255 90.2208 105.728 90.1678C105.08 90.1059 104.45 90.0264 103.811 89.9291C102.439 89.7346 101.325 89.4164 99.9176 89.6286V89.6374ZM83.8508 149.298C82.9788 149.581 83.9889 151.332 84.2307 151.844C84.6105 152.666 85.0767 153.462 85.4825 154.267C87.2351 157.758 90.1619 162.276 92.7087 165.308C93.0972 165.776 94.0124 167.12 94.6685 167.014C95.5491 166.863 94.3491 164.919 94.1419 164.521C91.8972 160.322 90.1532 156.998 87.3905 153.011C86.8898 152.295 86.3718 151.579 85.8192 150.907C85.2321 150.182 84.5328 149.086 83.8594 149.307L83.8508 149.298ZM163.943 114.416C163.65 114.61 161.604 122.84 161.345 123.848C160.948 125.422 160.499 127.022 160.076 128.586C159.851 129.391 159.696 130.231 159.497 131.044C159.376 131.557 158.945 133.289 160.05 133.006C160.853 132.794 162.243 130.301 162.588 129.532C163.874 126.668 164.686 122.752 164.712 119.623C164.712 118.703 164.764 117.501 164.677 116.608C164.643 116.281 164.634 113.974 163.952 114.416H163.943ZM63.778 67.4933C63.5535 67.9441 63.6312 68.0502 63.8298 68.4833C63.9766 68.8104 64.0888 69.164 64.2183 69.4999C66.0659 74.2912 67.9048 79.0294 69.9337 83.75C72.0661 88.7269 73.9569 92.3071 76.8145 96.7713C77.0649 97.1602 77.7469 98.3536 78.3081 97.9912C78.852 97.6376 78.2304 96.2939 78.0578 95.8166C77.7988 95.1182 77.5484 94.4375 77.2721 93.7392C74.5526 86.897 71.6517 80.8681 68.1379 74.3973L65.0212 68.9961C64.7104 68.4922 64.3651 67.6612 63.7867 67.4933H63.778ZM77.2203 51.0155C76.4174 51.1658 77.0131 52.2266 77.203 52.6686C77.8764 54.2156 78.8952 56.0808 79.6636 57.619C80.7341 59.776 81.8651 62.0125 83.0392 64.1075C84.8782 67.4048 86.5703 70.0392 89.0568 72.8503C89.5661 73.4249 90.9906 75.2724 91.8281 74.9365C92.7519 74.5564 91.5691 72.037 91.3015 71.3652C90.0151 68.1386 87.9862 64.6379 86.061 61.7826C84.9731 60.1738 78.9556 50.6884 77.2289 51.0155H77.2203ZM128.261 51.0774C126.845 51.1923 125.827 51.2807 124.566 52.041C123.591 52.6244 122.822 53.4288 122.304 54.4454C121.406 56.2046 122.114 57.1593 123.608 56.682C125.006 56.2311 125.878 55.9129 127.381 55.7361C129.91 55.4444 132.88 56.2046 135.203 57.2035C137.301 58.1052 139.157 59.4489 140.935 60.8544C141.35 61.1815 144.561 63.8247 144.924 63.86C145.709 63.9219 145.261 62.6401 145.105 62.2777C144.363 60.5715 142.489 58.1494 141.168 56.8234C139.58 55.2234 137.818 53.7913 135.746 52.8631C133.441 51.8288 130.825 50.8741 128.261 51.0863V51.0774ZM168.07 100.811C167.811 101.315 168.295 104.436 168.303 105.602C168.303 106.062 168.338 106.893 168.381 107.335C168.493 108.44 168.415 113.116 168.312 114.319C168.217 115.371 168.243 116.484 168.148 117.713C168.053 118.818 167.984 119.897 167.88 121.002C167.69 122.938 167.362 125.263 166.905 127.145C165.981 130.911 164.867 134.315 163.52 137.948C162.881 139.672 162.243 141.413 161.578 143.128C161.345 143.72 160.611 145.294 160.999 145.842C161.535 146.602 162.666 145.011 162.968 144.64C165.083 142.032 166.913 138.832 168.269 135.764C170.652 130.39 171.558 125.616 171.921 119.914C171.955 119.419 171.99 118.659 171.981 118.164C171.972 115.813 171.972 113.594 171.765 111.242C171.515 108.369 170.928 105.24 169.736 102.588C169.443 101.934 168.968 100.661 168.079 100.811H168.07ZM80.5356 125.528C80.4579 124.865 80.5528 122.946 81.6147 123.141C82.4781 123.3 83.1687 125.864 87.8567 127.402C90.7403 128.348 94.0814 128.622 97.1204 128.622C97.6816 128.622 98.3204 128.648 98.8644 128.622C99.1406 128.604 100.315 128.427 100.41 128.71C100.608 129.276 95.9721 130.558 95.4369 130.681C93.4512 131.132 91.0424 131.3 89.0222 131.035C87.1229 130.779 85.3444 130.363 83.6695 129.4C82.3745 128.648 80.7168 127.119 80.5269 125.545L80.5356 125.528ZM86.9416 118.633C83.4277 118.809 79.7672 119.004 76.5469 120.878C73.2748 122.779 72.4719 126.093 75.2346 128.931C80.7341 134.571 98.2255 136.436 105.322 132.246C108.586 130.319 109.458 127.013 106.634 124.175C102.413 119.923 92.6569 118.359 86.9416 118.641V118.633ZM134.028 120.091C133.467 122.381 130.61 124.706 128.477 125.501C127.786 125.758 127.027 125.943 126.301 126.067L124.428 126.226C123.608 126.244 119.913 125.696 119.282 125.139C118.972 124.865 119.11 124.458 119.498 124.317C119.835 124.202 120.301 124.149 120.655 124.078C126.673 122.84 127.519 123.318 132.785 119.782C132.958 119.667 133.485 119.251 133.64 119.225C134.149 119.145 134.106 119.773 134.028 120.091ZM125.999 109.686C123.832 109.872 122.934 109.881 120.733 110.597C116.52 111.958 112.298 115.052 111.072 119.481C110.148 122.832 111.417 126.182 114.077 128.312C115.268 129.267 116.701 129.965 118.152 130.416C120.163 131.035 121.596 131.07 123.668 131.079C129.522 131.097 136.912 127.243 138.526 121.223C139.442 117.846 138.138 114.575 135.47 112.445C133.001 110.464 129.107 109.421 125.991 109.686H125.999ZM77.6347 145.798C77.4102 143.862 79.0333 144.649 80.1211 144.825C82.5644 145.214 88.038 146.452 89.7561 147.822C90.7662 148.627 90.9993 149.139 91.4655 150.315C91.8626 151.305 92.277 152.304 92.6914 153.294L100.099 171.222C100.928 173.219 101.748 175.217 102.577 177.215C102.939 178.081 104.934 182.749 105.029 183.217C105.296 184.57 103.785 184.932 102.948 183.783C102.37 182.988 101.8 182.112 101.239 181.299C100.09 179.628 98.9334 177.966 97.7766 176.305C95.4714 172.99 93.2094 169.639 90.8871 166.333C88.5647 163.045 86.2682 159.685 83.9976 156.362C82.5471 154.24 77.8937 148.008 77.6433 145.798H77.6347ZM99.1234 141.342C99.0025 140.14 100.971 139.893 101.834 140.087C102.853 140.308 103.794 140.812 104.338 141.723C105.616 143.862 101.748 142.218 100.634 141.935C100.151 141.811 99.5033 141.643 99.1234 141.351V141.342ZM54.523 137.152C54.074 137.957 50.9832 137.727 51.7689 136.781C52.1315 136.339 53.4524 136.074 54.1949 136.489C54.4193 136.613 54.6611 136.905 54.523 137.152ZM43.9297 100.042C43.5153 100.944 42.3584 102.279 41.7196 103.083C41.0979 103.861 39.7252 105.045 38.8619 105.532C37.5755 106.265 36.3409 106.681 34.8473 106.76C30.8587 106.981 27.9664 103.322 32.0155 102.924C33.7163 102.756 35.3567 103.012 37.023 102.632C38.3439 102.34 39.5957 101.775 40.8044 101.174C41.3656 100.891 41.9354 100.546 42.4966 100.237C42.7815 100.077 43.075 99.9271 43.3513 99.7503C43.7225 99.5205 44.1542 99.5559 43.9297 100.042ZM135.772 88.5854C135.591 87.4981 136.247 86.9677 137.275 87.1976C138.924 87.56 141.945 89.5313 143.042 90.5833C143.43 90.9546 143.18 91.2551 142.809 91.4938C141.617 92.2629 138.397 91.6706 137.016 90.433C136.498 89.9645 135.902 89.3103 135.781 88.5766L135.772 88.5854ZM98.001 67.8999C100.729 64.0545 102.335 63.9573 106.824 63.3119C110.52 62.7815 114.664 61.6677 117.78 64.4435C118.954 65.4866 119.835 66.8479 121.018 67.9441C122.166 69.0049 123.668 69.8712 124.678 71.0116C126.949 73.584 125.999 78.5521 126.44 81.8405C126.699 83.7411 127.26 85.1821 128.209 86.8263C128.995 88.1877 129.884 89.6286 130.903 90.8308C133.286 93.6419 135.228 95.4453 138.906 96.3028C142.688 97.1868 146.167 97.1779 146.651 101.969C146.858 104.029 146.538 106.389 146.322 108.449C146.115 110.491 145.943 112.533 145.684 114.575C144.76 121.788 143.085 129.011 139.701 135.49C138.949 136.931 138.026 138.222 137.171 139.601C136.29 141.033 135.539 142.562 134.607 143.959C132.017 147.84 130.446 147.38 126.552 145.745C122.839 144.18 119.714 143.897 117.029 147.433C114.897 150.253 115.147 154.099 113.006 157.06C110.45 160.605 106.911 159.031 106.652 154.93C106.522 152.896 107.23 151.022 107.895 149.139C108.568 147.248 108.965 145.709 108.905 143.676C108.793 139.787 106.626 136.976 102.715 136.436C101.005 136.198 98.9507 136.374 97.3449 137.029C95.67 137.709 94.5649 138.832 93.2095 139.955C90.3604 142.333 87.4078 142.969 84.317 140.529C83.022 139.504 82.0205 138.16 80.7255 137.143C79.3096 136.038 77.652 135.473 75.8735 135.331C68.3019 134.721 64.5205 143.155 63.3981 149.396C61.8787 157.82 63.5881 166.466 61.8873 174.758C61.093 178.63 58.3735 185.993 54.3158 187.726C52.8135 188.371 51.2509 188.177 50.2839 186.753C48.2464 183.774 50.258 178.824 51.4581 175.854C52.7272 172.698 54.1431 169.701 55.5849 166.625C58.4857 160.41 61.9823 153.126 62.0513 146.178C62.0859 142.766 61.2225 138.576 58.8397 135.994C55.1446 131.999 48.2982 132.396 45.1729 137.02C43.334 139.742 43.757 144.295 41.6332 147.407C40.813 148.609 39.7166 149.086 38.8878 147.592C37.2733 144.693 38.6892 139.106 34.7869 137.868C33.2328 137.373 30.9709 137.532 29.4428 138.081C24.0555 139.999 22.2856 146.558 23.1058 151.5C23.6842 154.983 25.8599 158.925 24.9793 162.452C24.0987 165.971 19.946 168.296 16.7602 166.298C13.3759 164.167 14.7573 159.314 15.9918 156.344C17.4682 152.79 19.0308 149.953 18.7632 145.913C18.5042 142.076 16.3285 139.442 12.5557 138.699C9.55128 138.107 4.24173 138.31 3.67192 134.306C3.22298 131.141 5.8648 127.305 7.59149 124.803C9.43905 122.124 11.2348 119.702 13.4364 117.289C14.5242 116.095 15.4652 114.911 16.4753 113.656C19.1172 110.385 20.8611 109.244 25.057 109.952C27.0945 110.296 29.0111 110.827 31.1004 110.898C34.502 111.021 38.6029 109.598 41.5641 107.945C47.7889 104.48 51.0005 98.7249 52.3905 91.8739C53.0639 88.5501 53.461 84.2981 57.1907 82.9809C58.7447 82.4328 60.3764 82.698 61.6628 83.7323C63.778 85.4384 64.9176 89.8319 66.2645 92.6784C67.499 95.2862 70.3222 99.5647 70.5725 102.058C70.7538 103.843 69.2689 104.524 67.8703 105.152C66.6529 105.7 64.037 106.646 63.2255 107.653C62.2412 108.891 64.2442 109.448 65.1162 109.536C68.3192 109.881 72.0661 107.697 76.4347 107.229C79.3355 106.911 86.0178 105.956 88.4697 105.921C90.7748 105.885 93.0195 106.195 95.3419 106.062C96.6887 105.991 99.8313 105.611 100.746 104.489C101.662 103.348 99.0025 102.606 98.355 102.411C96.6715 101.925 94.2023 101.554 92.7346 100.67C91.2151 99.7503 90.8957 98.3448 90.3 96.8066C88.5042 92.1922 82.4694 87.2064 90.7576 85.3147C94.7549 84.4041 98.7694 84.8638 102.732 83.5378C107.092 82.0704 105.46 78.888 103.302 76.1741C102.257 74.857 101.23 73.7078 100.367 72.2492C99.5291 70.8348 98.8212 69.332 98.001 67.8999ZM118.195 56.682C117.996 53.7824 119.101 50.7415 121.708 49.2829C124.281 47.842 128.149 47.8243 130.964 48.4166C140.314 50.3702 149.232 60.6599 155.353 67.6435C158.91 71.7011 161.966 75.5111 164.66 80.214C167.336 84.8903 169.71 90.1413 171.454 95.2508C173.647 101.66 174.45 107.353 174.424 114.124C174.398 120.869 174.027 127.393 172.413 133.961C171.057 139.477 169.072 144.79 166.309 149.749C165.532 151.146 163.002 155.601 161.88 156.397C160.386 157.458 159.549 156.291 159.117 154.912C158.53 153.055 158.392 152.826 157.304 151.243C155.871 149.157 153.773 147.318 151.606 146.036C150.372 145.303 149.232 144.817 147.885 144.339C146.038 143.685 145.183 143.667 143.275 143.508C138.501 143.102 141.738 139.486 142.817 137.32C144.086 134.766 145.174 132.388 146.089 129.674C148.041 123.875 149.102 117.483 149.715 111.401C150.328 105.381 150.7 97.6729 148.446 91.9535C146.607 87.2948 142.783 82.8218 139.347 79.2327C135.772 75.5023 131.775 72.2492 127.804 68.9695C125.853 67.3606 123.755 65.6899 121.985 63.8865C120.111 61.9771 118.402 59.4489 118.221 56.682H118.195ZM62.2585 24.7166C62.2585 24.4779 62.7679 23.5585 63.1391 23.5232C63.5795 23.4878 64.1406 24.1597 64.3737 24.4779C64.7104 24.9376 64.9262 25.4326 65.2198 25.91C65.5047 26.3697 65.8414 26.794 66.1436 27.236C67.3436 29.0305 68.535 30.8339 69.7351 32.6284L91.3015 64.965C93.6843 68.5629 96.0758 72.1784 98.4759 75.7586C99.0629 76.625 99.9867 77.5885 100.125 78.6493C100.315 80.1079 99.0111 80.5234 97.8456 80.6825C95.2815 81.0449 92.7346 81.5223 90.1791 81.9643C88.91 82.1853 87.6236 82.3886 86.3545 82.6185C85.0854 82.8571 83.7472 82.9897 82.5126 83.2461C81.1313 83.5201 80.4665 84.3246 80.6996 85.7655C80.8809 86.9059 81.6061 87.8959 82.1327 88.8948L86.7516 97.7613C87.2265 98.663 88.1071 99.8653 88.2021 100.855C88.3575 102.411 86.7948 102.579 85.6379 102.615C84.1961 102.659 82.9443 102.8 81.5198 102.942C78.3167 103.26 76.5037 104.338 74.8461 101.695C73.672 99.8211 72.7827 97.7348 71.8244 95.737C70.8575 93.7038 69.8991 91.6706 68.9322 89.6374C65.0903 81.5135 61.2398 73.3807 57.3806 65.2656C56.9144 64.2755 56.2583 62.976 56.4914 61.8533C56.7677 60.5008 58.1663 60.3329 59.3059 60.1914L71.2718 58.7152C72.4287 58.5737 73.7497 58.3881 74.2418 57.1416C74.6907 55.9924 74.1382 54.7637 73.6719 53.7206C72.9381 52.094 62.2499 24.7077 62.2499 24.7077L62.2585 24.7166ZM51.0782 0C49.9818 5.89627 51.1991 7.60238 53.7459 12.7915C55.2223 15.8059 55.2395 16.5484 56.2755 19.3684C57.0871 21.5784 58.054 23.8149 58.9174 26.0249C60.6527 30.4361 62.4226 34.7765 64.0025 39.2495C64.8399 41.6275 65.8414 43.6695 66.9292 45.9325C67.9048 47.9481 69.0703 50.3702 68.8113 52.6686C68.2415 57.7339 60.3419 55.8952 55.1446 56.8676C52.9085 57.2919 51.5185 58.229 51.4753 60.66C51.4322 62.976 52.8999 65.1418 54.1172 66.9982C55.4381 69.0049 56.9403 71.1618 57.3547 73.5752C57.7001 75.626 57.3288 77.7565 55.9475 79.3477C54.5057 81.0096 52.2524 82.1941 50.3444 83.2549C48.3241 84.3776 46.6147 85.4738 44.7413 86.8263C42.9282 88.1346 41.072 89.3015 39.2158 90.5391C37.3769 91.7678 35.5466 93.0054 33.725 94.2607C30.1076 96.7624 26.5765 99.326 23.2267 102.19C16.6048 107.857 10.7341 114.381 5.55401 121.391C2.7913 125.13 -0.100898 129.479 0.00270345 134.341C0.158106 141.387 5.90799 140.538 10.7686 142.023C13.0392 142.713 14.7055 144.065 15.0422 146.532C15.6206 150.819 11.5025 155.531 11.0535 160.985C10.8549 163.398 11.3729 166.094 12.9615 167.986C16.1041 171.743 22.6051 171.089 25.9117 167.924C29.8658 164.141 28.8039 158.554 27.388 153.869C26.5678 151.155 25.9808 148.786 26.9218 145.983C27.4916 144.304 29.3996 141.404 31.4457 141.493C34.9077 141.643 34.2343 150.934 38.5165 152.605C40.7267 153.471 42.9196 151.517 44.111 149.829C45.4837 147.884 46.0535 145.444 47.7025 143.712C51.3286 139.902 58.1145 142.271 58.4684 147.734C58.6239 150.165 57.4497 152.994 56.5604 155.23C55.6885 157.431 54.7733 159.579 53.815 161.745C52.8826 163.858 51.907 165.962 50.9314 168.066C48.35 173.635 43.2908 183.651 47.3054 189.264C50.4566 193.666 56.2755 191.704 59.4008 188.353C62.129 185.427 64.486 179.734 65.3234 175.836C66.4803 170.444 66.3767 164.07 66.2904 158.554C66.2558 155.955 66.0227 145.02 70.0891 144.993C71.8676 144.985 73.6374 147.354 74.5353 148.671C75.8735 150.624 76.9786 152.728 78.2995 154.691C79.5082 156.485 80.8723 158.156 82.0723 159.951C85.7243 165.378 89.6525 170.956 93.3907 176.358C95.9031 179.991 98.4154 183.624 100.928 187.257C102.18 189.078 103.457 190.882 104.675 192.729C105.883 194.55 107.299 196.168 108.473 197.98C110.019 200.367 113.671 207.598 116.589 207.987C118.324 208.217 117.849 205.317 117.642 204.398C117.09 201.896 115.864 199.395 114.715 197.105C113.61 194.913 112.868 193.154 112.048 190.846C111.262 188.645 110.226 186.426 109.337 184.261C107.541 179.902 105.78 175.5 103.915 171.177C102.974 169.003 102.257 166.899 101.403 164.707C100.462 162.293 99.2442 160.366 98.1219 158.085C94.729 151.173 98.1219 148.361 100.807 151.199C103.932 154.496 103.578 162.222 108.525 162.894C113.748 163.602 115.605 157.307 119.447 156.185C123.228 155.08 129.116 158.881 132.008 161.126C135.85 164.105 137.827 167.297 142.791 168.782C147.842 170.293 152.849 169.542 157.037 166.298C159.609 164.309 164.185 159.553 166.119 156.927C168.571 153.586 171.005 148.795 172.585 144.958C176.868 134.571 178.128 124.6 177.99 113.408C177.921 107.751 177.368 102.588 175.788 97.1425C173.38 88.8506 168.847 79.2151 163.728 72.2668C159.756 66.8656 151.149 57.3273 146.107 52.9603C140.478 48.0807 134.65 44.3502 127.018 44.5712C124.644 44.6419 121.449 44.9601 119.377 46.1801C114.914 48.8232 116.451 54.8698 112.695 57.9549C110.925 59.4135 108.042 59.8555 105.84 60.2798C104.442 60.545 103.052 60.8191 101.662 61.1196C97.932 61.9241 95.2038 63.0556 92.4324 60.3594C90.8439 58.8212 89.7129 56.5494 88.6337 54.6222C87.5114 52.6156 86.3718 50.9537 85.0163 49.1061C83.6954 47.2939 82.5212 45.411 81.278 43.5457C76.3569 36.1555 71.4273 28.7741 66.4976 21.3928C65.2716 19.554 64.0715 17.6623 62.8283 15.8324C61.5592 13.9583 60.2901 12.3141 59.1073 10.3428C57.9504 8.41566 56.8713 6.49739 55.4985 4.72055C54.1431 2.96139 52.6495 1.53816 51.035 0.0353599L51.0782 0Z" fill="black"/>
</svg>
